<svg id="visual" viewBox="0 0 3840 2160" width="3840" height="2160" xmlns="http://www.w3.org/2000/svg" xmlns:xlink="http://www.w3.org/1999/xlink" version="1.1"><rect x="0" y="0" width="3840" height="2160" fill="#0d092e"></rect><g transform="translate(1871.7640357371952 1153.7155151404982)"><path d="M565.7 -763C708.2 -675.1 781.6 -476.5 772.3 -299.5C763.1 -122.5 671.1 32.9 611.3 193C551.5 353.1 523.8 517.9 427.3 577.6C330.7 637.2 165.4 591.6 -13.1 609.7C-191.6 627.7 -383.2 709.5 -487.9 652.5C-592.5 595.5 -610.1 399.7 -637.6 227.8C-665.1 55.8 -702.5 -92.3 -650.8 -199.1C-599.1 -305.9 -458.2 -371.4 -334.9 -465.5C-211.6 -559.6 -105.8 -682.3 52.9 -755.1C211.6 -827.9 423.2 -850.8 565.7 -763" fill="#1c0534"></path></g></svg>