<svg id="visual" viewBox="0 0 3840 2160" width="3840" height="2160" xmlns="http://www.w3.org/2000/svg" xmlns:xlink="http://www.w3.org/1999/xlink" version="1.1"><rect x="0" y="0" width="3840" height="2160" fill="#0d092e"></rect><g transform="translate(1815.3433705819484 1133.6300104226802)"><path d="M421.8 -670.6C507.4 -518.4 510.5 -342.6 596.4 -171.7C682.2 -0.8 850.9 165.2 833.4 286.7C815.9 408.3 612.2 485.3 442.3 579.6C272.3 673.8 136.2 785.4 -22.5 816.4C-181.2 847.4 -362.5 797.9 -473.9 684.6C-585.3 571.3 -627 394.3 -625.3 240.7C-623.6 87 -578.6 -43.2 -536 -174.2C-493.4 -305.2 -453.3 -436.9 -364.4 -588.1C-275.5 -739.2 -137.7 -909.6 15.2 -930.5C168.1 -951.4 336.2 -822.8 421.8 -670.6" fill="#1c0534"></path></g></svg>